HIERARCHY
ROOT Hips
{
	OFFSET 2.142826 101.449409 -1.766026
	CHANNELS 6 Xposition Yposition Zposition Xrotation Yrotation Zrotation
	JOINT Chest
	{
		OFFSET -4.212912 12.286789 4.176174
		CHANNELS 3 Xrotation Yrotation Zrotation
		JOINT Chest2
		{
			OFFSET -5.890066 18.080162 9.873261
			CHANNELS 3 Xrotation Yrotation Zrotation
			JOINT Chest3
			{
				OFFSET -0.800435 13.547882 6.215648
				CHANNELS 3 Xrotation Yrotation Zrotation
				JOINT Neck
				{
					OFFSET -0.177549 15.571213 7.491459
					CHANNELS 3 Xrotation Yrotation Zrotation
					JOINT Head
					{
						OFFSET 0.690059 9.342163 4.698467
						CHANNELS 3 Xrotation Yrotation Zrotation
						End Site
						{
							OFFSET 0.710357 9.372284 4.635010
						}
					}
				}
				JOINT LeftCollar
				{
					OFFSET 3.120192 10.274429 9.300806
					CHANNELS 3 Xrotation Yrotation Zrotation
					JOINT LeftUpArm
					{
						OFFSET 16.795099 -4.207581 -2.953039
						CHANNELS 3 Xrotation Yrotation Zrotation
						JOINT LeftLowArm
						{
							OFFSET 19.786797 -27.352257 0.254898
							CHANNELS 3 Xrotation Yrotation Zrotation
							JOINT LeftHand
							{
								OFFSET 8.138706 -12.423050 26.084023
								CHANNELS 3 Xrotation Yrotation Zrotation
								End Site
								{
									OFFSET 1.778767 -2.715141 5.700809
								}
							}
						}
					}
				}
				JOINT RightCollar
				{
					OFFSET -4.973578 11.199875 7.185741
					CHANNELS 3 Xrotation Yrotation Zrotation
					JOINT RightUpArm
					{
						OFFSET -15.313005 3.369659 -7.915392
						CHANNELS 3 Xrotation Yrotation Zrotation
						JOINT RightLowArm
						{
							OFFSET -14.990793 -30.010971 3.788450
							CHANNELS 3 Xrotation Yrotation Zrotation
							JOINT RightHand
							{
								OFFSET 6.768780 -0.604065 29.236511
								CHANNELS 3 Xrotation Yrotation Zrotation
								End Site
								{
									OFFSET 1.479382 -0.132034 6.389931
								}
							}
						}
					}
				}
			}
		}
	}
	JOINT LeftUpLeg
	{
		OFFSET 8.031282 0.731773 5.948290
		CHANNELS 3 Xrotation Yrotation Zrotation
		JOINT LeftLowLeg
		{
			OFFSET -4.403188 -45.999905 10.421638
			CHANNELS 3 Xrotation Yrotation Zrotation
			JOINT LeftFoot
			{
				OFFSET 0.709676 -40.012604 -19.976393
				CHANNELS 3 Xrotation Yrotation Zrotation
				JOINT LeftToe
				{
					OFFSET -3.420737 -17.578012 15.455472
					CHANNELS 3 Xrotation Yrotation Zrotation
					End Site
					{
						OFFSET -1.971624 -3.755658 23.271585
					}
				}
			}
		}
	}
	JOINT RightUpLeg
	{
		OFFSET -8.031224 -0.731956 -5.948354
		CHANNELS 3 Xrotation Yrotation Zrotation
		JOINT RightLowLeg
		{
			OFFSET 21.567699 -40.157341 -12.893167
			CHANNELS 3 Xrotation Yrotation Zrotation
			JOINT RightFoot
			{
				OFFSET 31.055649 -23.207806 -22.305235
				CHANNELS 3 Xrotation Yrotation Zrotation
				JOINT RightToe
				{
					OFFSET 15.292095 -15.803431 -8.715500
					CHANNELS 3 Xrotation Yrotation Zrotation
					End Site
					{
						OFFSET 5.723518 -22.873217 1.900921
					}
				}
			}
		}
	}
}
MOTION
Frames: 16
Frame Time: 0.033333
-2.017917 105.586266 -1.111719 -14.102677 33.573334 -7.943440 -8.226745 -5.729823 3.980979 -6.255633 -8.662745 3.635885 9.294626 -4.022159 1.872255 0.882099 -7.423006 4.144773 0.000006 -0.000000 0.000000 1.962984 8.812232 0.611963 16.533631 2.605783 -27.325519 46.106185 11.322890 -11.581267 -0.000002 -0.000000 0.000003 -1.641059 -24.539802 16.387126 20.081588 -17.381942 -5.258453 64.159778 -21.657896 0.212149 0.000001 0.000000 -0.000003 24.749645 8.365391 26.154591 -28.726857 8.081359 0.454869 4.937507 -33.899663 -9.715235 -0.000001 0.000000 0.000001 -0.017829 4.344408 -10.167605 -6.641314 -3.316837 -13.371722 -27.735730 -6.429623 -39.819877 -0.000001 -0.000004 0.000002 
-2.018318 105.584969 -1.111308 -14.159066 33.467947 -7.844300 -8.850508 -5.671835 3.458731 -3.728244 -8.697437 4.908680 7.358659 -3.952453 1.231709 0.942326 -7.313083 4.252500 0.000002 0.000001 -0.000000 2.159502 8.550826 0.425838 16.482196 2.313584 -27.414723 45.359515 11.055210 -11.043221 -0.000004 -0.000002 0.000005 -1.410913 -24.241301 16.485037 20.226396 -17.059775 -5.061836 64.258433 -22.126249 -0.127674 0.000003 -0.000002 0.000004 24.867278 8.362214 26.062088 -28.796945 8.158669 0.466031 4.918595 -33.942765 -9.722557 -0.000001 -0.000000 0.000001 0.262795 4.415248 -10.061784 -6.830400 -3.426863 -13.672783 -27.712629 -6.430872 -39.468077 0.000002 -0.000006 0.000003 
-2.025672 105.582108 -1.117121 -14.150975 33.394591 -7.874015 -8.829534 -5.648368 3.459753 -3.129064 -8.696029 5.165289 6.760322 -4.036599 1.033086 0.596889 -7.117532 3.983433 0.000002 0.000001 0.000000 1.946179 9.182116 0.697009 16.483321 2.407146 -27.361403 46.129974 11.312602 -11.281838 -0.000003 0.000002 -0.000000 -1.223289 -23.519548 16.722356 20.232397 -17.189126 -4.901424 64.765937 -22.589304 -0.271784 0.000001 0.000000 -0.000005 25.101287 8.576372 26.290860 -28.985007 8.395845 0.334503 4.609454 -34.018024 -10.056454 -0.000001 0.000000 -0.000000 0.625221 4.386263 -9.866108 -6.881308 -3.591337 -13.800516 -27.930583 -6.294375 -39.300816 0.000001 -0.000004 -0.000001 
-2.034256 105.581612 -1.127038 -13.330632 33.260364 -7.904966 -9.446782 -5.678661 3.104103 -3.414289 -8.702672 5.067087 7.163727 -3.818294 1.194293 -0.060096 -7.048681 3.945548 0.000004 -0.000000 -0.000000 2.024543 8.658635 0.587892 16.236125 1.965959 -27.857780 46.172816 11.894210 -10.773347 0.000001 0.000001 0.000002 -1.226643 -23.647197 16.615511 19.971932 -16.507684 -4.853154 64.833809 -22.731512 -0.417196 -0.000001 0.000000 0.000000 24.465521 8.188857 25.913046 -28.879980 8.391284 0.385133 4.521901 -33.900278 -10.073102 -0.000001 -0.000001 -0.000000 -0.030340 4.394689 -10.334076 -6.876323 -3.613805 -13.679862 -27.891409 -6.418756 -39.520707 0.000001 -0.000002 0.000000 
-2.041093 105.576691 -1.133953 -13.115960 32.986119 -7.966563 -9.042105 -5.663631 3.328955 -4.392710 -8.659771 4.580118 7.869084 -3.830213 1.488280 -0.029937 -6.850881 3.897311 0.000004 -0.000000 -0.000000 2.115916 8.422596 0.499804 16.398487 1.922310 -27.879471 45.836768 11.807604 -10.422239 -0.000003 0.000005 -0.000003 -1.119636 -23.574106 16.728738 19.891430 -16.136235 -4.896769 64.449549 -22.676160 -0.739142 0.000002 -0.000001 0.000000 24.571904 8.222985 25.917194 -29.111503 8.471522 0.214669 4.646394 -33.679970 -9.870799 -0.000002 -0.000000 0.000001 -0.214040 4.399039 -10.469414 -6.779913 -3.498446 -13.606761 -28.208189 -6.364544 -39.267618 0.000002 -0.000007 0.000004 
-2.051285 105.578796 -1.146642 -13.205834 33.142909 -7.906003 -8.928845 -5.708581 3.514046 -4.002794 -8.723822 4.754883 7.293915 -3.861095 1.171667 0.120958 -6.837299 3.805206 0.000002 0.000001 0.000000 2.037117 8.597460 0.386170 16.284626 2.037426 -27.826867 46.131009 11.933625 -10.563489 -0.000000 0.000004 -0.000001 -1.194959 -23.387492 16.809403 19.771822 -16.330064 -5.041780 64.464336 -22.496068 -0.734681 0.000001 -0.000004 0.000002 24.410413 8.186947 25.842180 -29.058022 8.352120 0.215005 4.491780 -33.554039 -9.988193 -0.000001 -0.000000 0.000001 -0.105034 4.396873 -10.435054 -6.897216 -3.561940 -13.650048 -28.113692 -6.307720 -39.167132 0.000003 -0.000002 0.000000 
-2.064321 105.569290 -1.153368 -12.622807 33.127804 -8.002475 -10.039587 -5.791314 2.913237 -1.869862 -8.830542 5.890841 5.985813 -3.708774 0.657121 0.275705 -6.717024 3.843809 0.000002 -0.000001 -0.000001 2.060410 8.423866 0.532676 16.364015 1.989061 -28.040363 46.057297 11.976993 -10.647984 -0.000003 0.000000 -0.000002 -1.160017 -23.183429 16.606546 19.895028 -16.273003 -4.778236 64.263836 -22.454961 -0.493793 0.000002 -0.000001 -0.000002 24.092516 7.975610 25.677075 -29.143256 8.374500 0.212614 4.938730 -33.218656 -9.427772 -0.000001 0.000000 0.000001 -0.426978 4.373228 -10.516206 -7.070138 -3.611150 -13.875548 -28.048698 -6.330837 -39.295431 0.000000 -0.000002 -0.000000 
-2.075942 105.567398 -1.163369 -12.676957 32.895458 -8.017799 -9.738911 -5.772817 3.068040 -2.234897 -8.645549 5.612121 6.173989 -3.936308 0.832446 -0.073820 -6.435935 3.629434 0.000004 0.000001 0.000001 1.978291 9.080190 0.738478 16.501848 2.079884 -27.890693 46.376267 11.981408 -10.779459 -0.000000 0.000003 -0.000001 -0.963310 -22.572088 16.778935 19.896500 -16.198642 -4.683965 64.305459 -22.522967 -0.501625 0.000003 -0.000002 0.000004 24.188787 8.003808 25.646206 -29.163900 8.430952 0.181896 5.221375 -33.046327 -9.077683 -0.000001 -0.000000 0.000001 -0.244026 4.423946 -10.478139 -7.124248 -3.669925 -13.972678 -28.026066 -6.303882 -39.360249 0.000001 -0.000005 0.000003 
-2.086137 105.559753 -1.169928 -12.754826 32.923564 -7.944907 -9.708456 -5.757347 3.071117 -2.536422 -8.660495 5.487279 6.606040 -3.739361 1.026010 -0.291729 -6.557382 3.725486 0.000000 0.000000 0.000001 1.935988 8.900390 0.906874 16.611457 2.094786 -28.022162 46.493801 11.926726 -10.881334 -0.000004 -0.000003 0.000000 -1.084149 -22.894850 16.358597 20.050586 -16.331206 -4.478280 64.251890 -22.295397 -0.464461 -0.000001 -0.000003 0.000007 24.259780 8.000118 25.544747 -29.096104 8.314408 0.294399 5.130477 -32.867799 -9.100355 -0.000002 -0.000000 0.000001 -0.056232 4.465179 -10.414541 -7.292279 -3.662893 -14.090682 -27.886873 -6.343793 -39.422448 0.000001 -0.000004 -0.000000 
-2.096048 105.554878 -1.172653 -12.675722 32.876883 -8.073125 -10.027498 -5.788415 2.912715 -1.504108 -8.751036 6.043007 5.927943 -3.732449 0.714133 0.108556 -6.669861 3.869944 0.000004 -0.000000 -0.000000 1.700920 9.548493 1.175174 16.521487 2.196833 -28.027080 46.743397 11.899667 -11.459470 -0.000000 0.000003 -0.000003 -1.230598 -22.878562 16.203372 20.094481 -16.664835 -4.452869 64.373508 -22.034243 0.033234 0.000002 0.000000 -0.000002 24.244151 7.963846 25.628355 -29.225468 8.352969 0.217774 5.475180 -32.768645 -8.741162 -0.000000 -0.000001 0.000000 -0.114455 4.453268 -10.362241 -7.351006 -3.661071 -14.048446 -27.936059 -6.379794 -39.245140 0.000003 -0.000007 -0.000000 
-2.101263 105.544266 -1.169941 -12.396761 32.935654 -8.073488 -10.860929 -5.789134 2.382705 0.130038 -8.790378 6.899639 4.960559 -3.697130 0.345474 -0.031953 -6.598257 3.884218 -0.000001 -0.000001 -0.000000 1.576445 10.124688 1.429730 16.028270 1.728118 -28.340690 47.129589 12.025452 -11.708878 -0.000002 0.000001 -0.000003 -1.296901 -22.992877 16.206377 20.119975 -16.738702 -4.601443 64.194851 -21.756676 0.246884 0.000001 -0.000003 0.000002 24.098333 7.814787 25.529867 -29.162237 8.147309 0.205293 5.116744 -32.688828 -9.106816 -0.000001 0.000000 0.000002 -0.250756 4.461135 -10.377830 -7.279109 -3.477689 -13.923207 -27.966283 -6.441761 -39.191304 -0.000001 -0.000006 -0.000000 
-2.102015 105.537849 -1.169333 -12.503451 32.860443 -8.180654 -10.550916 -5.788527 2.538222 -0.165645 -8.829259 6.787505 5.107679 -3.833100 0.342134 0.232030 -6.696752 3.994431 0.000000 -0.000000 -0.000000 1.584740 10.773315 1.626351 15.764502 1.269177 -28.385378 47.186427 11.682610 -11.548554 -0.000000 0.000001 0.000002 -1.088964 -22.817777 16.484858 20.129923 -16.375915 -4.729865 63.839053 -21.788218 -0.138304 -0.000001 0.000000 0.000002 24.168271 7.849335 25.675012 -29.035339 8.127063 0.235373 5.260321 -32.829222 -9.003324 -0.000001 -0.000000 0.000001 -0.121116 4.486600 -10.264476 -7.315074 -3.553453 -13.942436 -27.764815 -6.455410 -38.940421 0.000000 -0.000002 0.000001 
-2.094332 105.528519 -1.161265 -11.988740 32.703844 -8.284870 -11.284008 -5.785778 2.102243 -0.122329 -8.854097 6.815935 5.294626 -3.699158 0.456856 0.564258 -6.853609 4.102965 0.000004 -0.000001 -0.000000 1.766383 9.397350 1.181302 16.287452 1.709200 -28.202903 46.390112 11.330968 -11.234433 0.000002 0.000004 -0.000002 -1.088254 -22.837494 16.515018 20.138922 -16.398997 -4.716127 63.933726 -22.015718 -0.313215 -0.000002 -0.000001 0.000000 24.145651 7.829999 25.578184 -29.465077 8.385994 0.138438 5.287278 -32.772340 -8.949041 -0.000001 0.000000 0.000002 -0.258448 4.482980 -10.371265 -7.542444 -3.664706 -14.205588 -27.778673 -6.469145 -38.468148 -0.000000 -0.000004 0.000001 
-2.091144 105.520958 -1.158256 -11.873171 32.722217 -8.380412 -11.198758 -5.780991 2.173894 0.255879 -8.869180 6.991045 4.843038 -3.726688 0.224502 0.640960 -7.159466 4.169123 0.000000 -0.000001 -0.000001 1.628575 9.628196 1.255892 16.197777 1.864860 -28.137494 46.687734 11.468203 -11.539783 0.000001 0.000002 -0.000002 -1.247092 -22.989216 16.265768 20.134271 -16.688850 -4.604634 64.361788 -21.910566 -0.069960 -0.000000 0.000001 -0.000007 23.926533 7.764866 25.552206 -29.233824 8.290968 0.288225 5.195581 -32.736318 -9.043742 -0.000001 -0.000000 0.000001 -0.522455 4.434296 -10.428911 -7.425440 -3.619589 -14.096227 -27.638692 -6.468297 -38.578783 0.000002 -0.000001 0.000001 
-2.079642 105.516106 -1.154045 -12.746040 32.596531 -8.475967 -9.987648 -5.725305 2.815294 -0.629650 -8.896260 6.537909 5.308598 -3.733212 0.489822 0.984622 -7.246214 4.242845 0.000002 -0.000001 -0.000000 1.776781 8.831004 0.945185 16.408824 2.013470 -28.174452 45.773944 11.177548 -10.988751 -0.000004 0.000000 0.000000 -1.264376 -23.162715 16.352192 20.234104 -16.960270 -4.818301 64.360149 -21.835032 -0.299021 -0.000000 0.000001 -0.000002 24.533100 8.103044 25.808893 -29.321736 8.351918 0.392254 5.239630 -32.730997 -8.974953 -0.000001 0.000000 0.000001 0.197794 4.453040 -10.025913 -7.405987 -3.700557 -14.173681 -28.120830 -6.358419 -38.500742 -0.000001 -0.000007 0.000001 
-2.053504 105.519180 -1.152364 -12.563603 32.741748 -8.493625 -9.930591 -5.748619 2.909593 -1.540010 -9.058917 6.127980 6.025423 -4.041269 0.449853 0.829143 -7.339152 4.142777 0.000000 -0.000002 -0.000001 1.532188 8.986106 0.823453 16.556845 2.698938 -27.856426 45.893820 11.379768 -11.660904 0.000000 0.000004 -0.000003 -1.611282 -23.198965 16.175862 20.134984 -17.726597 -4.956994 64.955195 -21.651838 0.410790 -0.000001 0.000001 -0.000002 24.478262 8.091951 25.705900 -29.338343 8.382933 0.484589 4.676003 -32.691976 -9.467642 -0.000001 0.000000 -0.000000 -0.027334 4.378684 -10.237155 -7.118358 -3.623812 -13.950627 -28.151086 -6.369425 -38.523831 0.000003 -0.000004 0.000001 
